<svg width="300" height="300" viewBox="0 0 300 300" fill="none" xmlns="http://www.w3.org/2000/svg">
<path d="M107.143 32.1429C107.143 14.3973 121.54 0 139.286 0H160.714C178.46 0 192.857 14.3973 192.857 32.1429V267.857C192.857 285.603 178.46 300 160.714 300H139.286C121.54 300 107.143 285.603 107.143 267.857V32.1429ZM0 160.714C0 142.969 14.3973 128.571 32.1429 128.571H53.5714C71.317 128.571 85.7143 142.969 85.7143 160.714V267.857C85.7143 285.603 71.317 300 53.5714 300H32.1429C14.3973 300 0 285.603 0 267.857V160.714ZM246.429 42.8571H267.857C285.603 42.8571 300 57.2545 300 75V267.857C300 285.603 285.603 300 267.857 300H246.429C228.683 300 214.286 285.603 214.286 267.857V75C214.286 57.2545 228.683 42.8571 246.429 42.8571Z" fill="black"/>
</svg>
