<svg width="301" height="300" viewBox="0 0 301 300" fill="none" xmlns="http://www.w3.org/2000/svg">
<path d="M184.153 0.680561C176.183 -2.18993 167.886 3.60963 165.589 13.5685L105.584 276.013C103.287 285.972 107.928 296.341 115.897 299.211C123.867 302.082 132.164 296.282 134.461 286.323L194.466 23.8788C196.763 13.92 192.122 3.55105 184.153 0.680561ZM221.937 71.0368C216.077 78.3595 216.077 90.2515 221.937 97.5741L263.8 149.946L221.89 202.318C216.03 209.64 216.03 221.532 221.89 228.855C227.75 236.178 237.266 236.178 243.126 228.855L295.63 163.244C301.49 155.921 301.49 144.029 295.63 136.706L243.126 71.0954C237.266 63.7727 227.75 63.7727 221.89 71.0954L221.937 71.0368ZM78.16 71.0368C72.3002 63.7141 62.7838 63.7141 56.924 71.0368L4.4199 136.648C-1.43993 143.971 -1.43993 155.863 4.4199 163.185L56.924 228.796C62.7838 236.119 72.3002 236.119 78.16 228.796C84.0199 221.474 84.0199 209.582 78.16 202.259L36.2505 149.946L78.16 97.5741C84.0199 90.2515 84.0199 78.3595 78.16 71.0368Z" fill="black"/>
</svg>
