<svg width="300" height="300" viewBox="0 0 300 300" fill="none" xmlns="http://www.w3.org/2000/svg">
<path d="M0 56.1284C0 25.1295 36.1461 0 80.7349 0H219.265C263.854 0 300 25.1295 300 56.1284C300 75.757 285.507 93.0328 263.555 103.065C285.507 113.097 300 130.372 300 150.001C300 181 263.854 206.13 219.265 206.13H217.512C196.609 206.13 177.561 200.607 163.223 191.545V243.262C163.223 274.674 126.132 300 81.1698 300C36.6925 300 0 274.947 0 243.871C0 224.244 14.4916 206.969 36.4422 196.937C14.4916 186.904 0 169.629 0 150.001C0 130.372 14.4929 113.097 36.445 103.065C14.4929 93.0328 0 75.757 0 56.1284ZM136.777 112.258H80.7349C50.7514 112.258 26.4454 129.156 26.4454 150.001C26.4454 170.766 50.5639 187.614 80.3876 187.744C80.5031 187.743 80.6186 187.743 80.7349 187.743H136.777V112.258ZM163.223 150.001C163.223 170.846 187.528 187.744 217.512 187.744H219.265C249.249 187.744 273.554 170.846 273.554 150.001C273.554 129.156 249.249 112.258 219.265 112.258H217.512C187.528 112.258 163.223 129.156 163.223 150.001ZM80.7349 206.13C80.6186 206.13 80.5031 206.129 80.3876 206.129C50.5639 206.259 26.4454 223.107 26.4454 243.871C26.4454 264.64 51.0761 281.614 81.1698 281.614C111.748 281.614 136.777 264.367 136.777 243.262V206.13H80.7349ZM80.7349 18.3854C50.7514 18.3854 26.4454 35.2836 26.4454 56.1284C26.4454 76.9734 50.7514 93.8713 80.7349 93.8713H136.777V18.3854H80.7349ZM163.223 93.8713H219.265C249.249 93.8713 273.554 76.9734 273.554 56.1284C273.554 35.2836 249.249 18.3854 219.265 18.3854H163.223V93.8713Z" fill="black"/>
</svg>
