<svg width="300" height="300" viewBox="0 0 300 300" fill="none" xmlns="http://www.w3.org/2000/svg">
<g clip-path="url(#clip0_1_11)">
<path d="M46.0547 2.92968C40.4883 -1.40626 32.5781 -0.878912 27.5391 4.10156L4.10157 27.5391C-0.878904 32.5195 -1.40625 40.4297 2.8711 46.0547L49.7461 106.992C52.3828 110.449 56.543 112.5 60.8789 112.5H92.5781L156.445 176.367C147.832 193.359 150.586 214.687 164.824 228.867L230.449 294.492C237.773 301.816 249.668 301.816 256.992 294.492L294.492 256.992C301.816 249.668 301.816 237.773 294.492 230.449L228.867 164.824C214.688 150.645 193.359 147.832 176.367 156.445L112.5 92.5781V60.9375C112.5 56.543 110.449 52.4414 106.992 49.8047L46.0547 2.92968ZM11.6602 232.09C4.21875 239.531 2.68755e-06 249.668 2.68755e-06 260.215C2.68755e-06 282.187 17.8125 300 39.7852 300C50.332 300 60.4688 295.781 67.9102 288.34L136.934 219.316C132.363 207.07 131.66 193.77 134.824 181.172L98.6719 145.02L11.6602 232.09ZM300 84.375C300 78.2227 299.355 72.2461 298.125 66.5039C296.719 59.9414 288.691 58.2422 283.945 62.9883L246.504 100.43C244.746 102.187 242.344 103.184 239.883 103.184H206.25C201.094 103.184 196.875 98.9648 196.875 93.8086V60.1172C196.875 57.6562 197.871 55.2539 199.629 53.4961L237.07 16.0547C241.816 11.3086 240.117 3.28124 233.555 1.87499C227.754 0.644525 221.777 -5.92426e-06 215.625 -5.92426e-06C169.043 -5.92426e-06 131.25 37.793 131.25 84.375V84.8437L181.23 134.824C202.324 129.492 225.645 135.117 242.168 151.641L251.367 160.84C280.078 147.363 300 118.184 300 84.375ZM32.8125 253.125C32.8125 249.395 34.2941 245.819 36.9313 243.181C39.5685 240.544 43.1454 239.062 46.875 239.062C50.6046 239.062 54.1815 240.544 56.8187 243.181C59.4559 245.819 60.9375 249.395 60.9375 253.125C60.9375 256.855 59.4559 260.431 56.8187 263.069C54.1815 265.706 50.6046 267.187 46.875 267.187C43.1454 267.187 39.5685 265.706 36.9313 263.069C34.2941 260.431 32.8125 256.855 32.8125 253.125Z" fill="black"/>
</g>
<defs>
<clipPath id="clip0_1_11">
<rect width="300" height="300" fill="white"/>
</clipPath>
</defs>
</svg>
