<svg width="301" height="300" viewBox="0 0 301 300" fill="none" xmlns="http://www.w3.org/2000/svg">
<path d="M166.465 10.5457C163.454 4.1011 157.091 0 150.103 0C143.115 0 136.809 4.1011 133.741 10.5457L97.2107 88.0566L15.6285 100.477C8.81106 101.532 3.12985 106.453 1.0278 113.19C-1.07424 119.928 0.630118 127.369 5.51596 132.348L64.7142 192.752L50.7384 278.113C49.6021 285.144 52.4428 292.292 58.0672 296.451C63.6916 300.611 71.1339 301.138 77.2696 297.799L150.16 257.666L223.049 297.799C229.185 301.138 236.628 300.669 242.252 296.451C247.876 292.233 250.717 285.144 249.581 278.113L235.548 192.752L294.746 132.348C299.632 127.369 301.393 119.928 299.235 113.19C297.076 106.453 291.451 101.532 284.634 100.477L202.995 88.0566L166.465 10.5457Z" fill="black"/>
</svg>
