<svg width="300" height="300" viewBox="0 0 300 300" fill="none" xmlns="http://www.w3.org/2000/svg">
<path d="M32.4798 97.621L93.871 265.766C50.9274 244.96 21.3508 200.927 21.3508 150C21.3508 131.31 25.3427 113.649 32.4798 97.621ZM236.855 143.528C236.855 127.621 231.169 116.613 226.27 108.024C219.738 97.4395 213.629 88.4274 213.629 77.8427C213.629 65.9879 222.581 54.9798 235.222 54.9798C235.766 54.9798 236.31 55.0403 236.915 55.1008C213.992 34.1129 183.508 21.2903 150 21.2903C105.06 21.2903 65.504 44.3347 42.4597 79.2944C45.4839 79.4153 48.3266 79.4758 50.746 79.4758C64.1734 79.4758 85.0403 77.8427 85.0403 77.8427C91.996 77.4194 92.7823 87.6411 85.8871 88.4274C85.8871 88.4274 78.9315 89.2137 71.1895 89.6371L118.065 228.992L146.25 144.556L126.23 89.6371C119.274 89.2137 112.742 88.4274 112.742 88.4274C105.786 88.004 106.633 77.4194 113.528 77.8427C113.528 77.8427 134.758 79.4758 147.399 79.4758C160.827 79.4758 181.694 77.8427 181.694 77.8427C188.649 77.4194 189.435 87.6411 182.54 88.4274C182.54 88.4274 175.585 89.2137 167.843 89.6371L214.355 227.964L227.177 185.081C232.621 167.298 236.855 154.536 236.855 143.528ZM152.238 161.25L113.649 273.448C125.202 276.835 137.359 278.71 150 278.71C165 278.71 179.335 276.109 192.702 271.391C192.339 270.847 192.036 270.242 191.794 269.637L152.238 161.25ZM262.923 88.246C263.468 92.3589 263.77 96.7137 263.77 101.492C263.77 114.556 261.351 129.194 253.972 147.581L214.657 261.23C252.944 238.911 278.649 197.48 278.649 150C278.649 127.621 272.964 106.573 262.923 88.246ZM300 150C300 232.742 232.681 300 150 300C67.2581 300 0 232.681 0 150C0 67.2581 67.2581 0 150 0C232.681 0 300 67.2581 300 150ZM293.105 150C293.105 71.0686 228.871 6.89516 150 6.89516C71.0686 6.89516 6.89516 71.0686 6.89516 150C6.89516 228.931 71.129 293.105 150 293.105C228.931 293.105 293.105 228.931 293.105 150Z" fill="black"/>
</svg>
